<svg width="110" height="132" viewBox="0 0 110 132" fill="none" xmlns="http://www.w3.org/2000/svg">
<path fill-rule="evenodd" clip-rule="evenodd" d="M43.881 28.7847C47.9545 32.8584 51.8717 39.3351 54.7184 46.3165C57.5979 38.8167 61.7604 31.7485 66.1006 27.4084C76.3257 17.1833 91.4102 20.4696 100.315 29.3747C109.22 38.2798 113.686 52.1844 102.282 63.5893C97.1842 68.6868 89.5184 73.1409 81.6723 75.9477C90.209 78.8055 98.5686 83.4724 103.461 88.3651C113.686 98.5901 110.4 113.675 101.495 122.58C92.5899 131.485 78.6852 135.951 67.2803 124.546C62.0354 119.301 57.4714 111.337 54.6824 103.255C51.8672 110.927 47.494 118.377 42.5044 123.367C31.0995 134.771 17.1949 130.305 8.28975 121.4C-0.615356 112.495 -3.90166 97.4106 6.32339 87.1855C10.5842 82.9247 17.4742 78.8351 24.8207 75.9625C18.2349 73.1752 12.0376 69.3033 7.69995 64.9657C-3.70493 53.5608 0.761189 39.6562 9.6663 30.7511C18.5714 21.846 33.6559 18.5597 43.881 28.7847ZM70.7709 60.5177C61.9969 68.9364 48.1737 69.0324 39.2836 60.7363C47.7025 69.5104 47.7984 83.3336 39.5024 92.2237C48.2764 83.8048 62.0994 83.7088 70.9896 92.0049C62.5708 83.231 62.4749 69.4078 70.7709 60.5177Z" fill="#D2D7FF"/>
<path d="M21.5 0L24.2044 11.4071L32.25 2.88045L28.8886 14.1114L40.1195 10.75L31.593 18.7956L43 21.5L31.593 24.2044L40.1195 32.25L28.8886 28.8886L32.25 40.1196L24.2044 31.593L21.5 43L18.7956 31.593L10.75 40.1196L14.1114 28.8886L2.88045 32.25L11.407 24.2044L0 21.5L11.407 18.7956L2.88045 10.75L14.1114 14.1114L10.75 2.88045L18.7956 11.4071L21.5 0Z" fill="#E4F757"/>
</svg>
