<svg width="92" height="92" viewBox="0 0 92 92" fill="none" xmlns="http://www.w3.org/2000/svg">
<g clip-path="url(#clip0_905_293)">
<mask id="mask0_905_293" style="mask-type:luminance" maskUnits="userSpaceOnUse" x="-16" y="-16" width="124" height="124">
<path d="M68.2795 -15.1199L-15.1191 23.7217L23.7224 107.12L107.121 68.2787L68.2795 -15.1199Z" fill="white"/>
</mask>
<g mask="url(#mask0_905_293)">
<path d="M59.3588 45.0097C68.4937 44.3328 78.6969 38.9287 83.6386 32.1501L87.7003 26.5794L80.8225 26.1036C72.4539 25.5242 61.7521 29.8566 55.355 36.4128L50.5579 41.3296C50.467 41.2291 50.3705 41.1362 50.2744 41.0422L54.7462 35.8542C60.7269 28.9158 64.1199 17.8804 62.8216 9.59256L61.7543 2.78149L56.5543 7.30812C50.2272 12.8162 45.7231 23.4469 45.8356 32.6064L45.9174 39.2213C45.7778 39.219 45.6384 39.2171 45.4985 39.224L45.0104 32.6421C44.333 23.5074 38.929 13.3044 32.1507 8.36229L26.5802 4.30089L26.1043 11.1785C25.525 19.5473 29.8574 30.2492 36.4136 36.6462L41.1375 41.2553C41.0421 41.358 40.9538 41.4659 40.8659 41.5741L35.855 37.2549C28.9167 31.2745 17.8811 27.8811 9.59335 29.1797L2.7823 30.247L7.30891 35.4469C12.8169 41.7739 23.4478 46.2782 32.6071 46.1654L39.4558 46.0811C39.4661 46.215 39.4748 46.3488 39.4935 46.4829L32.6429 46.9908C23.5081 47.6681 13.3051 53.0721 8.36308 59.8506L4.30165 65.421L11.1792 65.8968C19.5481 66.4763 30.2501 62.1441 36.6469 55.5874L41.6684 50.4411C41.7654 50.5238 41.8628 50.6068 41.9644 50.6833L37.2557 56.1462C31.2753 63.0845 27.8819 74.12 29.1804 82.4077L30.2477 89.2188L35.4476 84.6921C41.7747 79.1843 46.279 68.5534 46.1663 59.3943L46.0748 51.9709C46.1968 51.9658 46.3192 51.9514 46.4416 51.9396L46.9917 59.3585C47.6689 68.4932 53.073 78.6964 59.8514 83.6382L65.4219 87.7L65.8981 80.822C66.4773 72.4535 62.1451 61.7516 55.5888 55.3545L50.2635 50.1591C50.3515 50.0735 50.4415 49.9889 50.5237 49.8984L56.147 54.7454C63.0853 60.7261 74.1207 64.1192 82.4085 62.8209L89.2196 61.7536L84.6929 56.5536C79.1851 50.2264 68.5542 45.7224 59.395 45.8347L52.1832 45.9241C52.19 45.7971 52.1892 45.669 52.1881 45.5412L59.3588 45.0097Z" fill="url(#paint0_linear_905_293)"/>
</g>
</g>
<defs>
<linearGradient id="paint0_linear_905_293" x1="58.6886" y1="-10.6531" x2="30.9685" y2="79.6421" gradientUnits="userSpaceOnUse">
<stop stop-color="#B0B9FF"/>
<stop offset="1" stop-color="#E7E9FF"/>
</linearGradient>
<clipPath id="clip0_905_293">
<rect width="92" height="92" fill="white"/>
</clipPath>
</defs>
</svg>
